<svg id="Grupo_218" data-name="Grupo 218" xmlns="http://www.w3.org/2000/svg" width="39.83" height="53.106" viewBox="0 0 39.83 53.106">
  <path id="Icon_awesome-file" data-name="Icon awesome-file" d="M23.234,14.106V0H2.489A2.483,2.483,0,0,0,0,2.489V50.617a2.483,2.483,0,0,0,2.489,2.489H37.34a2.483,2.483,0,0,0,2.489-2.489V16.6H25.723A2.5,2.5,0,0,1,23.234,14.106Zm16.6-1.462v.633H26.553V0h.633a2.487,2.487,0,0,1,1.763.726L39.1,10.891A2.481,2.481,0,0,1,39.83,12.644Z" transform="translate(0 0)" fill="#fff"/>
</svg>
