<svg xmlns="http://www.w3.org/2000/svg" width="45.128" height="51.575" viewBox="0 0 45.128 51.575">
  <path id="Icon_awesome-calendar-check" data-name="Icon awesome-calendar-check" d="M43.919,16.117H1.209A1.209,1.209,0,0,1,0,14.908V11.282A4.835,4.835,0,0,1,4.835,6.447H9.67V1.209A1.209,1.209,0,0,1,10.879,0h4.029a1.209,1.209,0,0,1,1.209,1.209V6.447H29.011V1.209A1.209,1.209,0,0,1,30.22,0h4.029a1.209,1.209,0,0,1,1.209,1.209V6.447h4.835a4.835,4.835,0,0,1,4.835,4.835v3.626A1.209,1.209,0,0,1,43.919,16.117ZM1.209,19.341H43.919a1.209,1.209,0,0,1,1.209,1.209V46.74a4.835,4.835,0,0,1-4.835,4.835H4.835A4.835,4.835,0,0,1,0,46.74V20.549A1.209,1.209,0,0,1,1.209,19.341Zm33.574,9.665-2.838-2.861a1.209,1.209,0,0,0-1.709-.007l-10.681,10.6-4.632-4.669a1.209,1.209,0,0,0-1.71-.007L10.352,34.9a1.209,1.209,0,0,0-.007,1.709l8.321,8.388A1.209,1.209,0,0,0,20.376,45l14.4-14.284a1.209,1.209,0,0,0,.007-1.709Z" fill="#fff"/>
</svg>
