<svg xmlns="http://www.w3.org/2000/svg" width="441.614" height="145" viewBox="0 0 441.614 145">
  <g id="Grupo_195" data-name="Grupo 195" transform="translate(0 -1.808)">
    <text id="Garanhuns" transform="translate(270.614 116.808)" fill="#979797" font-size="35" font-family="SegoeUI-Semibold, Segoe UI" font-weight="600"><tspan x="0" y="0">Garanhuns</tspan></text>
    <g id="Grupo_18" data-name="Grupo 18" transform="translate(0 1.808)">
      <text id="IS" transform="translate(83.614 118)" fill="#6c6c6c" font-size="109" font-family="SegoeUI-Semibold, Segoe UI" font-weight="600"><tspan x="0" y="0">IS</tspan></text>
      <g id="Grupo_16" data-name="Grupo 16" transform="translate(0 32.382)">
        <path id="Caminho_1" data-name="Caminho 1" d="M.2,5.714,0,0,13.264,10.973l-.577,94.393,1.713,4.519L.2,98.679Z" transform="translate(0 8.865) rotate(-38)" fill="#6c6c6c"/>
        <path id="Caminho_2" data-name="Caminho 2" d="M.224.214,13.1,0V78.691H0Z" transform="translate(66.135 7.872)" fill="#6c6c6c"/>
      </g>
      <g id="Grupo_17" data-name="Grupo 17" transform="translate(184.408 32.21)">
        <path id="Caminho_3" data-name="Caminho 3" d="M.2,5.714,0,0,13.264,10.973l-.577,94.393,1.713,4.519L.2,98.679Z" transform="translate(79.236 86.59) rotate(142)" fill="#6c6c6c"/>
        <path id="Caminho_4" data-name="Caminho 4" d="M.234.214,13.661,0V78.691H0Z" transform="translate(13.661 87.583) rotate(-180)" fill="#6c6c6c"/>
      </g>
    </g>
  </g>
</svg>
