<svg xmlns="http://www.w3.org/2000/svg" width="43.844" height="43.844" viewBox="0 0 43.844 43.844">
  <path id="Icon_material-exit-to-app" data-name="Icon material-exit-to-app" d="M21.77,35.166,25.2,38.6,37.383,26.422,25.2,14.243,21.77,17.677l6.284,6.309H4.5v4.872H28.054ZM43.472,4.5H9.372A4.87,4.87,0,0,0,4.5,9.372v9.743H9.372V9.372h34.1v34.1H9.372V33.729H4.5v9.743a4.87,4.87,0,0,0,4.872,4.872h34.1a4.886,4.886,0,0,0,4.872-4.872V9.372A4.886,4.886,0,0,0,43.472,4.5Z" transform="translate(-4.5 -4.5)" fill="#fff"/>
</svg>
