<svg xmlns="http://www.w3.org/2000/svg" width="145.173" height="165.912" viewBox="0 0 145.173 165.912">
  <path id="Icon_awesome-trash-alt" data-name="Icon awesome-trash-alt" d="M10.37,150.358a15.554,15.554,0,0,0,15.554,15.554h93.326A15.554,15.554,0,0,0,134.8,150.358V41.478H10.37ZM98.51,67.4a5.185,5.185,0,0,1,10.37,0v72.587a5.185,5.185,0,0,1-10.37,0ZM67.4,67.4a5.185,5.185,0,1,1,10.369,0v72.587a5.185,5.185,0,1,1-10.369,0Zm-31.109,0a5.185,5.185,0,0,1,10.37,0v72.587a5.185,5.185,0,1,1-10.37,0Zm103.7-57.032H101.1L98.057,4.31A7.777,7.777,0,0,0,91.09,0H54.051a7.686,7.686,0,0,0-6.935,4.31L44.07,10.37H5.185A5.185,5.185,0,0,0,0,15.554v10.37a5.185,5.185,0,0,0,5.185,5.185h134.8a5.185,5.185,0,0,0,5.185-5.185V15.554A5.185,5.185,0,0,0,139.988,10.37Z" fill="#fff"/>
</svg>
