<svg xmlns="http://www.w3.org/2000/svg" width="146.517" height="91" viewBox="0 0 146.517 91">
  <g id="Grupo_21" data-name="Grupo 21" transform="translate(-4449.963 -1855)">
    <text id="Garanhuns" transform="translate(4470.728 1941)" fill="#979797" font-size="19" font-family="SegoeUI-Semibold, Segoe UI" font-weight="600"><tspan x="0" y="0">Garanhuns</tspan></text>
    <g id="Grupo_18" data-name="Grupo 18" transform="translate(4449.963 1855)">
      <text id="IS" transform="translate(47.764 65)" fill="#6c6c6c" font-size="60" font-family="SegoeUI-Semibold, Segoe UI" font-weight="600"><tspan x="0" y="0">IS</tspan></text>
      <g id="Grupo_16" data-name="Grupo 16" transform="translate(0 18.548)">
        <path id="Caminho_1" data-name="Caminho 1" d="M.109,3.175,0,0,7.371,6.1,7.05,58.555,8,61.067.109,54.84Z" transform="translate(0 4.927) rotate(-38)" fill="#6c6c6c"/>
        <path id="Caminho_2" data-name="Caminho 2" d="M.125.119,7.281,0V43.731H0Z" transform="translate(36.754 4.375)" fill="#6c6c6c"/>
      </g>
      <g id="Grupo_17" data-name="Grupo 17" transform="translate(102.482 18.453)">
        <path id="Caminho_3" data-name="Caminho 3" d="M.109,3.175,0,0,7.371,6.1,7.05,58.555,8,61.067.109,54.84Z" transform="translate(44.034 48.121) rotate(142)" fill="#6c6c6c"/>
        <path id="Caminho_4" data-name="Caminho 4" d="M.13.119,7.592,0V43.731H0Z" transform="translate(7.592 48.673) rotate(-180)" fill="#6c6c6c"/>
      </g>
    </g>
  </g>
</svg>
