<svg xmlns="http://www.w3.org/2000/svg" width="47.226" height="47.226" viewBox="0 0 47.226 47.226">
  <path id="Icon_awesome-history" data-name="Icon awesome-history" d="M47.788,24.131A23.614,23.614,0,0,1,9.356,42.56a2.284,2.284,0,0,1-.175-3.39L10.254,38.1a2.289,2.289,0,0,1,3.036-.189,17.52,17.52,0,1,0-1.118-26.5L17,16.243a1.523,1.523,0,0,1-1.077,2.6H2.086A1.523,1.523,0,0,1,.563,17.32V3.479A1.523,1.523,0,0,1,3.163,2.4l4.7,4.7A23.613,23.613,0,0,1,47.788,24.131Zm-17.225,7.5.935-1.2a2.285,2.285,0,0,0-.4-3.207l-3.875-3.014V14.273a2.285,2.285,0,0,0-2.285-2.285H23.414a2.285,2.285,0,0,0-2.285,2.285V27.189l6.228,4.844a2.285,2.285,0,0,0,3.207-.4Z" transform="translate(-0.563 -0.563)" fill="#fff"/>
</svg>
